<?xml version="1.0" encoding="utf-8"?>
<!-- Generator: Adobe Illustrator 18.1.0, SVG Export Plug-In . SVG Version: 6.00 Build 0)  -->
<svg version="1.1" id="Layer_1" xmlns="http://www.w3.org/2000/svg" xmlns:xlink="http://www.w3.org/1999/xlink" x="0px" y="0px"
	 viewBox="0 0 500 500" enable-background="new 0 0 500 500" xml:space="preserve">
<g>
	<polygon fill="#010101" points="384.6,187.7 384.6,221.6 384.6,255.5 500,315.5 500,221.6 500,127.9 	"/>
	<path fill="#010101" d="M336.6,121.4V121h-3.1h-23.2h-41.2H90.9H49.7H26.4h-3.1v0.4c-13.1,1.5-23.2,12.6-23.2,26v166.7h359.8V147.3
		C359.8,133.9,349.5,122.9,336.6,121.4z M175.5,257.4H40.3v-83.7h135.2L175.5,257.4L175.5,257.4z"/>
	<path fill="#010101" d="M0,352.7c0,13.4,10.2,24.5,23.2,26v0.4h3.1h23.2h41.2h178h41.2h23.2h3.1v-0.4c13.1-1.5,23.2-12.6,23.2-26
		v-15H0V352.7z"/>
</g>
</svg>
